# xmcd
#
# Track frame offsets:
#	150
#	18040
#	36490
#	52405
#	70722
#	82617
#	98597
#	114594
#	130926
#	149433
#	167601
#
# Disc length: 2406 seconds
#
# Revision: 1
# Processed by: cddbd v1.5.2PL0 Copyright (c) Steve Scherf et al.
# Submitted via: audiograbber 1.83.01
#
DISCID=8c09640b
DTITLE=Michelle Wright - Do Right By Me
DYEAR=2010
DGENRE=Country
TTITLE0=The Rhythm Of Romance
TTITLE1=Do Right By Me
TTITLE2=I Want To Count On You
TTITLE3=I Wish I Were Only Lonely
TTITLE4=A Good Man Is Hard To Find
TTITLE5=Rock Me Gently
TTITLE6=New Fool At An Old Game
TTITLE7=With A Love Like Yours
TTITLE8=I Don't Want To Wonder
TTITLE9=Reaching For The Stars
TTITLE10=None Of The Feeling Is Gone (Duet With Terry Carisse) (Bonus Track)
EXTD=
EXTT0=
EXTT1=
EXTT2=
EXTT3=
EXTT4=
EXTT5=
EXTT6=
EXTT7=
EXTT8=
EXTT9=
EXTT10=
PLAYORDER=
